<svg width="180" height="40" viewBox="0 0 180 40" fill="none" xmlns="http://www.w3.org/2000/svg">
<rect y="18.3333" width="21.6667" height="21.6667" fill="#FE1155"/>
<rect x="18.3333" width="21.6667" height="21.6667" fill="#FE1155"/>
<rect x="3.33334" y="21.6667" width="15" height="15" fill="white"/>
<rect x="21.6667" y="3.33334" width="15" height="15" fill="white"/>
<rect x="6.66666" y="25" width="8.33333" height="8.33333" fill="#FE1155"/>
<rect x="25" y="6.66666" width="8.33333" height="8.33333" fill="#FE1155"/>
<path d="M72.5469 31H67.8594V21.25H58.7188V31H54.0312V8.25H58.7188V17.4688H67.8594V8.25H72.5469V31ZM84.1406 31.3125C81.6615 31.3125 79.6406 30.5521 78.0781 29.0312C76.526 27.5104 75.75 25.4844 75.75 22.9531V22.5156C75.75 20.8177 76.0781 19.3021 76.7344 17.9688C77.3906 16.625 78.3177 15.5938 79.5156 14.875C80.724 14.1458 82.099 13.7812 83.6406 13.7812C85.9531 13.7812 87.7708 14.5104 89.0938 15.9688C90.4271 17.4271 91.0938 19.4948 91.0938 22.1719V24.0156H80.3281C80.474 25.1198 80.9115 26.0052 81.6406 26.6719C82.3802 27.3385 83.3125 27.6719 84.4375 27.6719C86.1771 27.6719 87.5365 27.0417 88.5156 25.7812L90.7344 28.2656C90.0573 29.224 89.1406 29.974 87.9844 30.5156C86.8281 31.0469 85.5469 31.3125 84.1406 31.3125ZM83.625 17.4375C82.7292 17.4375 82 17.7396 81.4375 18.3438C80.8854 18.9479 80.5312 19.8125 80.375 20.9375H86.6562V20.5781C86.6354 19.5781 86.3646 18.8073 85.8438 18.2656C85.3229 17.7135 84.5833 17.4375 83.625 17.4375ZM103.172 18.3281C102.557 18.2448 102.016 18.2031 101.547 18.2031C99.8385 18.2031 98.7188 18.7812 98.1875 19.9375V31H93.6719V14.0938H97.9375L98.0625 16.1094C98.9688 14.5573 100.224 13.7812 101.828 13.7812C102.328 13.7812 102.797 13.849 103.234 13.9844L103.172 18.3281ZM112.828 31.3125C110.349 31.3125 108.328 30.5521 106.766 29.0312C105.214 27.5104 104.438 25.4844 104.438 22.9531V22.5156C104.438 20.8177 104.766 19.3021 105.422 17.9688C106.078 16.625 107.005 15.5938 108.203 14.875C109.411 14.1458 110.786 13.7812 112.328 13.7812C114.641 13.7812 116.458 14.5104 117.781 15.9688C119.115 17.4271 119.781 19.4948 119.781 22.1719V24.0156H109.016C109.161 25.1198 109.599 26.0052 110.328 26.6719C111.068 27.3385 112 27.6719 113.125 27.6719C114.865 27.6719 116.224 27.0417 117.203 25.7812L119.422 28.2656C118.745 29.224 117.828 29.974 116.672 30.5156C115.516 31.0469 114.234 31.3125 112.828 31.3125ZM112.312 17.4375C111.417 17.4375 110.688 17.7396 110.125 18.3438C109.573 18.9479 109.219 19.8125 109.062 20.9375H115.344V20.5781C115.323 19.5781 115.052 18.8073 114.531 18.2656C114.01 17.7135 113.271 17.4375 112.312 17.4375ZM123.594 31V17.4062H121.078V14.0938H123.594V12.6562C123.594 10.7604 124.135 9.29167 125.219 8.25C126.312 7.19792 127.839 6.67188 129.797 6.67188C130.422 6.67188 131.188 6.77604 132.094 6.98438L132.047 10.4844C131.672 10.3906 131.214 10.3438 130.672 10.3438C128.974 10.3438 128.125 11.1406 128.125 12.7344V14.0938H131.484V17.4062H128.125V31H123.594ZM133.125 22.3906C133.125 20.7135 133.448 19.2188 134.094 17.9062C134.74 16.5938 135.667 15.5781 136.875 14.8594C138.094 14.1406 139.505 13.7812 141.109 13.7812C143.391 13.7812 145.25 14.4792 146.688 15.875C148.135 17.2708 148.943 19.1667 149.109 21.5625L149.141 22.7188C149.141 25.3125 148.417 27.3958 146.969 28.9688C145.521 30.5312 143.578 31.3125 141.141 31.3125C138.703 31.3125 136.755 30.5312 135.297 28.9688C133.849 27.4062 133.125 25.2812 133.125 22.5938V22.3906ZM137.641 22.7188C137.641 24.3229 137.943 25.5521 138.547 26.4062C139.151 27.25 140.016 27.6719 141.141 27.6719C142.234 27.6719 143.089 27.2552 143.703 26.4219C144.318 25.5781 144.625 24.2344 144.625 22.3906C144.625 20.8177 144.318 19.599 143.703 18.7344C143.089 17.8698 142.224 17.4375 141.109 17.4375C140.005 17.4375 139.151 17.8698 138.547 18.7344C137.943 19.5885 137.641 20.9167 137.641 22.7188ZM161.422 18.3281C160.807 18.2448 160.266 18.2031 159.797 18.2031C158.089 18.2031 156.969 18.7812 156.438 19.9375V31H151.922V14.0938H156.188L156.312 16.1094C157.219 14.5573 158.474 13.7812 160.078 13.7812C160.578 13.7812 161.047 13.849 161.484 13.9844L161.422 18.3281ZM162.594 22.4219C162.594 19.7865 163.182 17.6875 164.359 16.125C165.547 14.5625 167.167 13.7812 169.219 13.7812C170.865 13.7812 172.224 14.3958 173.297 15.625V7H177.828V31H173.75L173.531 29.2031C172.406 30.6094 170.958 31.3125 169.188 31.3125C167.198 31.3125 165.599 30.5312 164.391 28.9688C163.193 27.3958 162.594 25.2135 162.594 22.4219ZM167.109 22.75C167.109 24.3333 167.385 25.5469 167.938 26.3906C168.49 27.2344 169.292 27.6562 170.344 27.6562C171.74 27.6562 172.724 27.0677 173.297 25.8906V19.2188C172.734 18.0417 171.76 17.4531 170.375 17.4531C168.198 17.4531 167.109 19.2188 167.109 22.75Z" fill="#131313"/>
</svg>
